<svg class="w-8" xmlns="http://www.w3.org/2000/svg" shape-rendering="geometricPrecision" text-rendering="geometricPrecision" image-rendering="optimizeQuality" fill-rule="evenodd" clip-rule="evenodd" viewBox="0 0 512 420.17"><path fill="currentColor" d="M74.32 0h363.36C478.55 0 512 33.46 512 74.32v271.53c0 40.82-33.5 74.32-74.32 74.32H74.32C33.44 420.17 0 386.69 0 345.85V74.32C0 33.41 33.41 0 74.32 0zm265.7 282.62c-4.24-6.15-38.45-62.67-38.76-62.67v62.67h-46.42V137.55h43.63c4.19 6.07 37.63 62.67 38.77 62.67v-62.67h46.41v145.07h-43.63zm-118.83-54.78h-46.42v17.64h56.86v37.14H128.35V137.55h102.12l-5.8 37.14h-49.9v19.49h46.42v33.66z"></path></svg>